# xmcd CD database file
#
# Track frame offsets:
#	150
#	22660
#	42003
#	57960
#	75520
#	107785
#	128627
#	146544
#	168347
#	191392
#	212159
#	228764
#
# Disc length: 3273 seconds
#
# Revision: 0
# Processed by: cddbd v1.5.2PL0 Copyright (c) Steve Scherf et al.
# Submitted via: CDex 1.70beta2
#
DISCID=8d0cc70c
DTITLE=Jamie Cullum - The Persuit
DYEAR=2009
DGENRE=Jazz
TTITLE0=Just One Of Those Things
TTITLE1=I'm All Over It
TTITLE2=Wheels
TTITLE3=If I Ruled The World
TTITLE4=You And Me Are Gone
TTITLE5=Don't Stop The Music
TTITLE6=Love Ain't Gonna Let You Down
TTITLE7=Mixtape
TTITLE8=I Think, I Love
TTITLE9=We Run Things
TTITLE10=Not While I'm Around
TTITLE11=Music Is Through
EXTD=YEAR: 2009
EXTT0=
EXTT1=
EXTT2=
EXTT3=
EXTT4=
EXTT5=
EXTT6=
EXTT7=
EXTT8=
EXTT9=
EXTT10=
EXTT11=
PLAYORDER=
